<?xml version="1.0" standalone="no"?>
<!DOCTYPE svg PUBLIC "-//W3C//DTD SVG 20010904//EN"
 "http://www.w3.org/TR/2001/REC-SVG-20010904/DTD/svg10.dtd">
<svg version="1.0" xmlns="http://www.w3.org/2000/svg"
 width="1247.000000pt" height="457.000000pt" viewBox="0 0 1247.000000 457.000000"
 preserveAspectRatio="xMidYMid meet">

<g transform="translate(0.000000,457.000000) scale(0.100000,-0.100000)"
fill="#000000" stroke="none">
<path d="M2626 4559 c-96 -27 -124 -158 -43 -197 90 -43 159 71 85 140 l-32
30 39 -16 c48 -20 83 -59 91 -105 20 -102 -31 -280 -122 -432 -54 -89 -161
-212 -205 -234 l-28 -15 21 48 c46 101 17 241 -66 321 l-35 34 21 -43 c14 -28
21 -62 21 -100 0 -80 -39 -158 -158 -316 -55 -71 -128 -169 -163 -219 -36 -49
-61 -81 -57 -70 4 11 25 78 47 149 48 157 74 210 146 301 l57 70 -50 -29 c-94
-54 -208 -141 -279 -213 -122 -122 -173 -228 -217 -448 -38 -192 -72 -278
-128 -329 -19 -17 -18 -11 10 47 25 54 33 89 41 174 5 60 14 131 19 159 13 68
66 176 119 243 l43 55 -39 -24 c-158 -95 -273 -209 -330 -326 -28 -58 -45
-119 -74 -263 -21 -102 -50 -216 -65 -254 -25 -62 -98 -187 -109 -187 -3 0 8
28 24 63 39 87 57 162 70 302 15 154 38 224 106 331 l19 29 -45 -35 c-80 -62
-231 -213 -276 -276 -91 -127 -124 -227 -149 -444 -20 -174 -40 -283 -65 -351
-11 -30 -18 -43 -16 -29 11 62 26 196 36 325 13 171 34 298 59 365 10 27 17
50 14 50 -14 0 -132 -112 -179 -169 -140 -169 -177 -317 -156 -625 11 -156 2
-303 -21 -370 -11 -31 -12 -16 -9 108 4 128 1 159 -23 272 -33 153 -31 223 9
310 34 77 9 45 -74 -92 -80 -133 -125 -240 -146 -348 -22 -112 -12 -194 46
-371 22 -67 42 -149 45 -181 l6 -59 -24 70 c-25 73 -46 119 -115 248 -38 71
-42 84 -42 150 0 41 8 103 19 142 11 38 18 71 17 72 -6 6 -90 -115 -116 -167
-68 -134 -98 -307 -81 -462 12 -107 42 -230 77 -320 13 -34 22 -63 20 -65 -2
-2 -15 1 -29 8 -38 17 -89 3 -133 -36 l-39 -34 32 9 c50 13 99 -5 128 -47 13
-20 49 -114 80 -209 62 -192 98 -259 194 -365 139 -153 297 -234 535 -275 107
-18 506 -30 621 -19 l80 8 -65 13 c-145 28 -268 92 -365 189 -181 181 -177
385 8 465 71 31 199 37 340 16 213 -32 395 -17 524 43 194 91 291 340 215 555
-27 74 -62 120 -121 157 -166 106 -382 62 -431 -86 -32 -98 45 -174 134 -134
52 24 52 117 0 158 l-25 19 31 22 c118 84 297 -31 324 -208 8 -52 -15 -165
-48 -237 -32 -71 -99 -136 -183 -179 -117 -58 -133 -61 -423 -61 -246 -1 -270
-2 -330 -23 -93 -31 -158 -84 -197 -161 -40 -76 -44 -148 -14 -256 11 -38 18
-71 16 -73 -2 -2 -22 6 -45 18 -65 33 -137 112 -173 188 -27 57 -32 78 -32
143 0 64 5 85 33 141 40 82 111 153 211 211 87 51 187 138 231 202 43 63 70
153 70 237 l0 72 -37 -36 c-44 -42 -92 -67 -188 -98 -223 -72 -327 -185 -386
-420 -12 -47 -23 -87 -25 -89 -8 -8 9 137 22 199 28 126 81 209 172 272 25 17
112 59 194 93 81 35 174 78 205 96 108 65 212 190 275 331 l17 38 -62 -48
c-91 -69 -168 -99 -355 -138 -210 -44 -286 -78 -365 -163 -30 -33 -71 -93 -91
-132 -40 -81 -45 -79 -16 5 49 144 125 238 236 294 33 16 124 51 204 77 393
130 584 230 751 395 42 41 95 103 118 138 42 63 96 172 85 172 -3 0 -19 -9
-35 -21 -54 -38 -193 -97 -329 -139 -477 -147 -543 -177 -709 -320 -37 -31
-104 -103 -151 -160 -47 -57 -95 -115 -108 -129 l-23 -26 17 35 c65 134 238
326 378 420 114 76 290 157 546 250 264 97 344 132 441 195 183 119 282 263
303 445 6 55 6 55 -11 30 -10 -14 -45 -54 -78 -88 -82 -88 -186 -137 -410
-196 -303 -79 -450 -159 -730 -395 -116 -98 -83 -50 63 90 179 174 375 289
667 393 166 59 232 89 324 143 253 149 407 352 426 558 l6 60 -18 -43 c-46
-109 -144 -181 -478 -354 -215 -111 -340 -187 -414 -252 -65 -57 -76 -62 -41
-18 73 92 189 174 451 317 106 59 225 129 265 157 100 68 201 177 247 265 33
64 77 200 77 241 0 8 -25 -25 -56 -74 -86 -137 -203 -250 -339 -324 -68 -37
-65 -33 17 29 210 158 383 440 419 681 31 215 -76 389 -215 349z"/>
<path d="M3090 1905 l0 -1895 30 0 30 0 0 1895 0 1895 -30 0 -30 0 0 -1895z"/>
<path d="M3817 3673 c-4 -3 -7 -223 -7 -488 l0 -482 143 -7 c136 -6 267 3 332
22 130 39 197 124 197 252 1 90 -29 156 -99 220 -75 68 -122 82 -310 87 l-153
5 0 154 0 154 230 0 230 0 0 45 0 45 -278 0 c-153 0 -282 -3 -285 -7z m424
-494 c51 -13 99 -48 121 -89 28 -52 22 -172 -11 -219 -43 -61 -94 -75 -273
-79 l-158 -4 0 201 0 200 68 4 c84 5 206 -2 253 -14z"/>
<path d="M4700 3190 l0 -490 305 0 305 0 0 45 0 45 -255 0 -255 0 0 125 0 125
220 0 220 0 0 40 0 40 -220 0 -220 0 0 235 0 235 245 0 245 0 0 45 0 45 -295
0 -295 0 0 -490z"/>
<path d="M5845 3643 c-9 -21 -93 -221 -186 -445 -93 -224 -178 -428 -189 -453
l-20 -46 52 3 51 3 158 390 157 389 14 -34 c8 -19 79 -196 158 -392 l143 -358
54 0 c30 0 52 3 50 8 -2 4 -95 224 -208 489 -112 266 -207 483 -211 483 -4 0
-15 -17 -23 -37z"/>
<path d="M6611 3196 c-110 -267 -201 -487 -201 -490 0 -3 22 -6 48 -6 l49 0
30 78 30 77 253 0 253 0 30 -77 30 -78 54 0 53 0 -15 38 c-127 307 -401 942
-406 942 -4 0 -97 -218 -208 -484z m312 39 c52 -137 98 -258 102 -267 7 -17
-7 -18 -205 -18 -165 0 -211 3 -208 13 48 141 204 535 209 530 4 -5 50 -120
102 -258z"/>
<path d="M7430 3190 l0 -490 50 0 50 0 0 129 0 129 118 4 c88 4 131 10 174 27
76 29 159 106 195 179 25 50 28 68 28 152 0 84 -3 102 -29 158 -68 147 -202
202 -493 202 l-93 0 0 -490z m330 374 c124 -34 180 -110 180 -246 0 -178 -88
-254 -307 -265 l-103 -6 0 272 0 273 88 -7 c48 -3 112 -13 142 -21z"/>
<path d="M8173 3668 c3 -7 87 -191 187 -408 164 -357 180 -396 169 -417 -22
-41 -73 -65 -130 -62 -41 2 -56 -2 -81 -22 l-31 -25 52 -17 c74 -24 118 -21
179 9 58 29 106 82 146 161 18 37 294 663 343 781 4 9 -10 12 -50 12 l-54 0
-148 -352 c-81 -194 -150 -356 -153 -360 -4 -3 -81 155 -171 353 l-164 359
-49 0 c-36 0 -49 -3 -45 -12z"/>
<path d="M9475 3670 c-138 -25 -260 -101 -329 -205 -149 -224 -92 -535 125
-675 198 -128 463 -115 632 31 71 61 74 72 29 102 l-38 24 -56 -52 c-81 -75
-145 -99 -273 -99 -92 -1 -105 2 -165 30 -160 76 -238 209 -228 390 8 149 87
271 215 331 153 71 338 45 451 -63 l44 -43 34 22 c19 12 34 27 34 32 0 13 -85
95 -121 118 -78 48 -249 75 -354 57z"/>
<path d="M10170 3190 l0 -490 50 0 50 0 0 146 0 145 57 69 c31 38 59 67 62 65
3 -2 80 -98 171 -214 l165 -210 64 0 c49 -1 61 2 54 12 -22 28 -167 212 -275
348 l-116 146 179 232 c98 128 179 235 179 237 0 2 -24 4 -54 4 l-55 0 -213
-278 -213 -279 -3 279 -2 278 -50 0 -50 0 0 -490z"/>
<path d="M11050 3190 l0 -490 50 0 50 0 0 490 0 490 -50 0 -50 0 0 -490z"/>
<path d="M4035 2398 c-3 -7 -76 -206 -164 -443 l-159 -430 -36 -3 -36 -3 0
-115 0 -114 40 0 40 0 0 70 0 70 340 0 340 0 0 -70 0 -70 40 0 40 0 0 115 0
115 -34 0 -33 0 -174 445 c-162 416 -189 474 -204 433z m149 -531 c69 -181
126 -333 126 -338 0 -5 -107 -9 -250 -9 -158 0 -250 4 -250 10 0 8 55 162 235
659 3 8 7 12 9 10 3 -2 61 -152 130 -332z"/>
<path d="M4912 2396 c-54 -14 -143 -63 -149 -82 -2 -7 9 -21 26 -33 l29 -21
57 30 c183 96 380 -66 257 -212 -34 -40 -94 -66 -171 -74 l-61 -7 0 -38 0 -39
58 0 c202 -1 310 -93 287 -247 -5 -37 -16 -57 -48 -89 -49 -49 -94 -64 -192
-64 -89 0 -144 25 -207 91 l-46 49 -36 -17 c-20 -9 -36 -23 -36 -30 0 -24 94
-109 150 -135 114 -53 251 -60 365 -17 135 50 204 229 141 364 -27 59 -71 99
-141 130 -43 19 -47 23 -28 29 32 10 90 80 102 123 44 157 -57 283 -239 297
-39 3 -86 0 -118 -8z"/>
<path d="M5871 2399 c-133 -22 -238 -103 -280 -215 -32 -84 -27 -226 11 -300
28 -53 86 -112 137 -139 l30 -15 -97 -138 c-54 -75 -101 -143 -105 -149 -6
-10 6 -13 51 -13 l59 0 94 135 c89 128 95 135 123 130 16 -3 66 -5 112 -5 l84
0 0 -130 0 -130 50 0 50 0 0 490 0 490 -132 -1 c-73 -1 -157 -5 -187 -10z
m219 -350 l0 -271 -112 4 c-96 3 -122 8 -170 30 -114 53 -164 186 -123 326 37
125 133 178 328 181 l77 1 0 -271z"/>
<path d="M6430 1920 l0 -490 50 0 50 0 0 120 0 120 53 0 c226 0 369 65 434
198 25 52 28 67 28 172 0 133 -15 178 -84 253 -78 84 -192 117 -408 117 l-123
0 0 -490z m369 370 c59 -26 113 -81 132 -136 7 -22 13 -73 13 -114 0 -91 -16
-141 -60 -190 -52 -58 -117 -80 -245 -87 l-109 -6 0 283 0 283 109 -6 c80 -4
122 -11 160 -27z"/>
<path d="M7220 2405 c0 -3 74 -102 164 -219 90 -117 170 -222 176 -233 12 -18
-5 -42 -176 -259 -105 -131 -193 -245 -197 -251 -6 -10 6 -13 52 -13 l60 0
172 216 c94 118 175 212 178 207 4 -4 31 -36 59 -69 l52 -62 0 -146 0 -146 55
0 55 0 0 148 0 148 57 68 c55 67 57 68 72 48 9 -12 86 -109 171 -216 l155
-196 64 0 c60 0 63 1 49 18 -12 13 -341 428 -380 478 -5 7 55 94 172 245 l179
234 -46 3 c-25 2 -51 1 -58 -2 -17 -6 -380 -475 -411 -531 -14 -25 -26 -45
-27 -45 -1 0 -2 129 -2 287 l0 288 -52 3 -53 3 -2 -288 -3 -288 -20 37 c-11
20 -107 150 -214 287 l-194 251 -54 0 c-29 0 -53 -2 -53 -5z"/>
<path d="M8942 2363 c-26 -61 -338 -823 -363 -885 l-19 -48 49 0 50 0 29 78
30 77 249 3 248 2 31 -77 32 -78 52 -3 c47 -3 52 -1 46 15 -26 74 -402 963
-407 963 -4 0 -16 -21 -27 -47z m132 -421 c53 -134 96 -247 96 -252 0 -6 -82
-10 -205 -10 -113 0 -205 2 -205 4 0 2 40 105 89 228 49 123 95 243 102 267
10 35 14 40 20 25 4 -11 51 -128 103 -262z"/>
<path d="M9394 2378 c7 -18 80 -184 161 -368 81 -184 156 -354 166 -378 l19
-43 -34 -37 c-32 -35 -38 -37 -96 -38 -52 -1 -65 -5 -87 -27 l-26 -25 53 -16
c30 -9 63 -16 74 -16 78 0 164 63 214 158 31 59 342 798 342 814 0 4 -22 8
-49 8 l-49 0 -145 -362 -145 -363 -24 55 c-13 30 -85 193 -159 362 l-134 308
-48 0 -47 0 14 -32z"/>
<path d="M9650 2396 c0 -23 67 -74 106 -82 50 -9 108 10 138 47 14 17 26 35
26 40 0 5 -59 9 -135 9 -109 0 -135 -3 -135 -14z"/>
<path d="M10380 1920 l0 -490 50 0 50 0 0 165 0 165 260 0 260 0 0 -165 0
-165 55 0 55 0 -2 488 -3 487 -50 0 -50 0 -3 -272 -2 -273 -260 0 -260 0 0
275 0 275 -50 0 -50 0 0 -490z"/>
<path d="M11380 1919 l0 -491 188 4 c159 4 196 8 250 27 164 57 241 154 250
316 9 175 -82 290 -278 352 -25 8 -102 17 -172 20 l-128 6 0 128 0 129 -55 0
-55 0 0 -491z m354 130 c88 -18 155 -63 188 -128 23 -44 28 -66 28 -127 0 -88
-17 -134 -68 -187 -55 -57 -124 -79 -269 -85 l-123 -5 0 272 0 271 93 0 c52 0
119 -5 151 -11z"/>
<path d="M12200 1920 l0 -490 55 0 55 0 0 490 0 490 -55 0 -55 0 0 -490z"/>
<path d="M3670 1135 c0 -3 81 -186 180 -407 131 -291 177 -405 171 -417 -25
-46 -62 -66 -121 -67 -42 -1 -65 -6 -84 -21 -14 -12 -26 -23 -26 -27 0 -7 98
-36 124 -36 83 0 173 70 229 178 30 57 86 186 318 735 l28 67 -53 0 -53 0
-138 -337 c-76 -186 -143 -348 -149 -360 -10 -20 -28 15 -171 335 l-160 357
-47 3 c-27 2 -48 0 -48 -3z"/>
<path d="M3940 1132 c0 -34 87 -91 139 -92 39 0 105 37 124 70 l18 30 -140 0
c-78 0 -141 -3 -141 -8z"/>
<path d="M4690 650 l0 -490 50 0 50 0 0 165 0 165 260 0 260 0 0 -165 0 -165
50 0 50 0 0 490 0 490 -50 0 -50 0 0 -275 0 -275 -260 0 -260 0 0 275 0 275
-50 0 -50 0 0 -490z"/>
<path d="M5690 650 l0 -490 50 0 50 0 0 490 0 490 -50 0 -50 0 0 -490z"/>
<path d="M6070 650 l0 -492 233 4 233 3 59 30 c66 34 118 93 135 153 14 50 13
146 -2 196 -15 51 -91 129 -141 145 l-37 13 32 22 c94 63 116 203 49 308 -22
34 -44 53 -88 74 -57 29 -60 29 -265 32 l-208 4 0 -492z m431 372 c84 -51 91
-181 15 -252 -27 -24 -33 -25 -187 -28 l-159 -3 0 156 0 157 148 -4 c132 -3
151 -5 183 -26z m10 -384 c86 -29 129 -91 129 -188 0 -100 -46 -164 -135 -189
-22 -6 -106 -11 -187 -11 l-148 0 0 200 0 200 154 0 c89 0 167 -5 187 -12z"/>
<path d="M6950 650 l0 -490 310 0 310 0 0 45 0 45 -255 0 -255 0 0 125 0 125
215 0 215 0 0 45 0 45 -215 0 -215 0 0 230 0 230 245 0 245 0 0 45 0 45 -300
0 -300 0 0 -490z"/>
<path d="M7790 651 l0 -491 50 0 50 0 0 120 0 120 53 0 c94 0 221 21 273 44
71 33 128 87 161 154 26 52 28 66 28 172 0 143 -20 195 -102 270 -80 74 -145
92 -350 98 l-163 4 0 -491z m368 369 c60 -26 114 -81 133 -136 7 -22 14 -73
14 -114 0 -91 -16 -140 -61 -190 -52 -58 -117 -80 -245 -87 l-109 -6 0 283 0
283 108 -5 c81 -4 120 -11 160 -28z"/>
<path d="M8972 1125 c-176 -39 -308 -152 -364 -312 -18 -55 -23 -88 -22 -168
1 -112 21 -183 75 -267 157 -244 540 -289 762 -89 61 55 63 66 20 95 l-37 25
-45 -45 c-185 -188 -518 -133 -633 104 -31 63 -33 73 -33 177 0 91 4 120 23
167 96 239 433 314 624 139 l52 -48 38 24 37 25 -25 33 c-54 72 -156 127 -264
144 -83 14 -130 13 -208 -4z"/>
<path d="M9690 650 l0 -490 50 0 50 0 0 490 0 490 -50 0 -50 0 0 -490z"/>
<path d="M9980 1095 l0 -45 150 0 150 0 0 -445 0 -445 50 0 50 0 0 445 0 445
150 0 150 0 0 45 0 45 -350 0 -350 0 0 -45z"/>
<path d="M11020 1129 c-76 -13 -167 -59 -223 -115 -26 -26 -47 -51 -47 -55 0
-5 15 -20 34 -34 l35 -26 35 38 c104 115 292 144 445 67 134 -67 211 -200 211
-364 l0 -50 -290 0 -290 0 0 -45 0 -45 275 0 c151 0 275 -3 275 -7 0 -23 -65
-116 -105 -151 -90 -79 -241 -112 -361 -78 -67 20 -150 72 -182 116 l-23 30
-39 -26 -40 -26 21 -29 c77 -108 244 -177 404 -166 195 13 359 131 425 304 27
71 38 215 21 293 -30 139 -128 264 -255 325 -104 50 -205 63 -326 44z"/>
<path d="M11760 1095 l0 -45 150 0 150 0 0 -445 0 -445 55 0 55 0 0 445 0 445
150 0 150 0 0 45 0 45 -355 0 -355 0 0 -45z"/>
</g>
</svg>
